<svg width="21" height="31" fill="none" xmlns="http://www.w3.org/2000/svg"><path d="M2.73 25.324a4.734 4.734 0 01-.192-.762l.011.025c-.328-1.876.228-4.291.942-6.46.03-.094.061-.192.094-.28 0-.016 0-.03.014-.045l.092-.27.014-.037c.385-1.1.79-2.108 1.118-2.917.974-2.405 1.23-3.58 1.12-4.484l.053.044-.839-2.455a2.656 2.656 0 01-1.005.627c-1.142.385-2.386-.058-3.18-1.027a3.426 3.426 0 01-.15-.192l-.059-.085-.035-.052a3.696 3.696 0 01-.385-.795C-.237 4.454.52 2.652 2.04 2.133a2.824 2.824 0 012.7.54A2.828 2.828 0 016.542.596c1.52-.519 3.225.442 3.808 2.147.038.116.071.23.098.345.386 1.603-.372 3.214-1.794 3.698-.28.096-.573.143-.868.14l.164.483.6 1.751a.985.985 0 01.037-.056c.044.12.109.23.193.326.44.554 1.581 1.462 3.533 2.6 2.539 1.482 7.205 4.22 8.233 7.234 1.736 5.057-1.755 9.378-6.217 10.902-3.418 1.157-7.386.685-9.837-1.88a7.908 7.908 0 01-1.761-2.962z" fill="#162E59" opacity=".7"/><path d="M1.893 1.678a2.83 2.83 0 012.7.54A2.828 2.828 0 016.398.141c1.52-.52 3.223.441 3.806 2.147.583 1.705-.177 3.506-1.697 4.025a2.58 2.58 0 01-.88.141l2.635 7.723-2.581.886-2.671-7.83a2.625 2.625 0 01-1.007.627C2.482 8.38.778 7.418.196 5.713c-.583-1.705.177-3.516 1.697-4.035z" fill="url(#paint0_linear_0_392)"/><path d="M5.022 2.363A4.456 4.456 0 016.88 1.186 4.554 4.554 0 018.895.954a2.315 2.315 0 00-3.873 1.409z" fill="url(#paint1_linear_0_392)"/><path d="M.458 3.921a4.479 4.479 0 011.858-1.178 4.58 4.58 0 012.016-.23A2.315 2.315 0 00.458 3.921z" fill="url(#paint2_linear_0_392)"/><path d="M7.528 6.147l.274.801s-1.108.266-1.4 1.229c-.294.962 1.074 5.208 1.074 5.208l-.328.114L4.97 7.133l.71-1.71 1.848.724z" fill="url(#paint3_linear_0_392)"/><path d="M.576 6.496c.772 1.2 2.162 1.798 3.43 1.366a2.828 2.828 0 001.801-2.08 2.824 2.824 0 002.7.543c1.422-.486 2.178-2.097 1.793-3.698a2.853 2.853 0 01-4.935 2.052 2.86 2.86 0 01-4.79 1.817h.001z" fill="url(#paint4_linear_0_392)"/><path style="mix-blend-mode:screen" opacity=".5" d="M1.893 1.678a2.83 2.83 0 012.7.54A2.828 2.828 0 016.398.141c1.52-.52 3.223.441 3.806 2.147.583 1.705-.177 3.506-1.697 4.025a2.58 2.58 0 01-.88.141l2.635 7.723-2.581.886-2.671-7.83a2.625 2.625 0 01-1.007.627C2.482 8.38.778 7.418.196 5.713c-.583-1.705.177-3.516 1.697-4.035z" fill="url(#paint5_linear_0_392)"/><path d="M2.588 24.888c1.736 5.058 7.125 6.346 11.587 4.822 4.461-1.522 7.943-5.844 6.216-10.902-1.028-3.01-5.694-5.752-8.234-7.231-2.402-1.4-3.578-2.454-3.727-2.926 0 0-.357.578-.478.617-.122.038-.79-.625-.79-.625s.084 1.873-.074 1.929c-.158.056-1.295-.922-1.295-.922.11.905-.144 2.077-1.118 4.484-1.102 2.72-3.117 7.741-2.087 10.754z" fill="url(#paint6_linear_0_392)"/><path style="mix-blend-mode:screen" d="M16.196 14.133c-1.433-1.036-2.934-1.915-4.037-2.558-2.402-1.4-3.578-2.453-3.727-2.926 0 0-.357.579-.478.617-.122.039-.791-.627-.791-.627s.085 1.875-.075 1.93c-.16.053-1.29-.923-1.29-.923.107.905-.147 2.08-1.121 4.485-.479 1.182-1.13 2.797-1.628 4.492.578-1.471 1.296-2.881 1.824-3.915C5.952 12.605 6.26 11.59 6.2 10.823c0 0 1.064.771 1.224.723.16-.048.168-1.649.168-1.649s.625.536.747.494c.121-.043.501-.552.501-.552.122.397 1.227 1.237 3.517 2.315 1.05.492 2.484 1.167 3.84 1.979z" fill="url(#paint7_linear_0_392)"/><path d="M2.58 24.879c1.727 5.057 7.126 6.348 11.587 4.822 4.462-1.522 7.943-5.845 6.217-10.902a4.868 4.868 0 00-.316-.718c.964 4.606-.579 7.853-6.543 9.888s-9.081.386-11.138-3.858c.043.26.108.517.193.768z" fill="#723824" opacity=".4"/><path style="mix-blend-mode:screen" opacity=".4" d="M7.177 9.23l6.992 20.477c4.462-1.524 7.943-5.847 6.217-10.904-1.03-3.011-5.696-5.75-8.235-7.232-2.401-1.398-3.58-2.453-3.726-2.926 0 0-.357.579-.479.62-.121.04-.79-.628-.79-.628s.013.263.02.592z" fill="url(#paint8_linear_0_392)"/><defs><linearGradient id="paint0_linear_0_392" x1="7.463" y1="10.636" x2="4.79" y2="2.81" gradientUnits="userSpaceOnUse"><stop stop-color="#6258C6"/><stop offset="1" stop-color="#A4A4FF"/></linearGradient><linearGradient id="paint1_linear_0_392" x1="8.712" y1=".425" x2="4.812" y2="1.757" gradientUnits="userSpaceOnUse"><stop stop-color="#fff"/><stop offset="1" stop-color="#A4A4FF"/></linearGradient><linearGradient id="paint2_linear_0_392" x1="4.149" y1="1.984" x2=".25" y2="3.316" gradientUnits="userSpaceOnUse"><stop stop-color="#fff"/><stop offset="1" stop-color="#A4A4FF"/></linearGradient><linearGradient id="paint3_linear_0_392" x1="6.496" y1="7.397" x2="7.181" y2="9.636" gradientUnits="userSpaceOnUse"><stop stop-color="#5B46A5"/><stop offset="1" stop-color="#6258C6"/></linearGradient><linearGradient id="paint4_linear_0_392" x1="5.626" y1="4.989" x2="6.341" y2="6.563" gradientUnits="userSpaceOnUse"><stop stop-color="#5B46A5"/><stop offset="1" stop-color="#6258C6"/></linearGradient><linearGradient id="paint5_linear_0_392" x1="7.919" y1="1.54" x2="6.237" y2="6.079" gradientUnits="userSpaceOnUse"><stop stop-color="#A4A4FF"/><stop offset="1" stop-color="#6258C6"/></linearGradient><linearGradient id="paint6_linear_0_392" x1="13.955" y1="29.066" x2="7.112" y2="9.033" gradientUnits="userSpaceOnUse"><stop stop-color="#693618"/><stop offset="1" stop-color="#C76638"/></linearGradient><linearGradient id="paint7_linear_0_392" x1="9.542" y1="16.148" x2="7.04" y2="8.823" gradientUnits="userSpaceOnUse"><stop stop-color="#693618"/><stop offset="1" stop-color="#9C6653"/></linearGradient><linearGradient id="paint8_linear_0_392" x1="21.968" y1="18.918" x2="5.11" y2="19.309" gradientUnits="userSpaceOnUse"><stop stop-color="#FF582C"/><stop offset=".87" stop-color="#FF9A7A"/><stop offset="1" stop-color="#FFA486"/></linearGradient></defs></svg>