<svg width="29" height="29" fill="none" xmlns="http://www.w3.org/2000/svg"><g filter="url(#filter0_d_0_2877)"><path fill-rule="evenodd" clip-rule="evenodd" d="M3.586 10.64c-1.561 5.825 1.896 11.813 7.722 13.374 5.825 1.56 11.813-1.897 13.374-7.722 1.56-5.826-1.896-11.814-7.722-13.374-5.825-1.561-11.813 1.896-13.374 7.721zm4.75 8.172a7.887 7.887 0 0013.329-7.695l-13.33 7.696zm-1.59-2.585L20.22 8.448a7.887 7.887 0 00-13.474 7.78z" fill="#FF4343"/><path d="M11.178 24.497c-6.092-1.633-9.707-7.895-8.075-13.987C4.735 4.418 10.997.802 17.09 2.435c6.092 1.632 9.707 7.894 8.075 13.986-1.633 6.093-7.895 9.708-13.987 8.076zm10.171-12.62L9.15 18.92a7.387 7.387 0 0012.2-7.043zm-14.321 3.61l12.41-7.165a7.387 7.387 0 00-12.41 7.165z" stroke="#B10B0B"/></g><defs><filter id="filter0_d_0_2877" x=".211" y=".543" width="27.846" height="27.846" filterUnits="userSpaceOnUse" color-interpolation-filters="sRGB"><feFlood flood-opacity="0" result="BackgroundImageFix"/><feColorMatrix in="SourceAlpha" values="0 0 0 0 0 0 0 0 0 0 0 0 0 0 0 0 0 0 127 0" result="hardAlpha"/><feOffset dy="1"/><feGaussianBlur stdDeviation="1"/><feComposite in2="hardAlpha" operator="out"/><feColorMatrix values="0 0 0 0 0.347121 0 0 0 0 0 0 0 0 0 0 0 0 0 0.69 0"/><feBlend in2="BackgroundImageFix" result="effect1_dropShadow_0_2877"/><feBlend in="SourceGraphic" in2="effect1_dropShadow_0_2877" result="shape"/></filter></defs></svg>