<svg width="72" height="91" viewBox="0 0 72 91" fill="none" xmlns="http://www.w3.org/2000/svg">
<g clip-path="url(#clip0_255_16828)">
<path d="M64.6401 4.65998C64.8601 3.99998 62.5601 0.869976 61.4501 0.269976C60.3401 -0.330024 22.0601 0.119976 17.6701 1.08998C17.6701 1.08998 -0.329912 66.54 8.81394e-05 75.22C0.330088 83.9 6.37009 90.12 6.37009 90.12H65.3701C65.3701 90.12 71.1701 85.58 71.7601 75.07C72.3501 64.56 63.0001 10.5 63.0001 10.5L64.6401 4.65998Z" fill="url(#paint0_linear_255_16828)"/>
<g opacity="0.54">
<path d="M5.65748e-05 75.22C-0.289943 66.54 17.6701 1.08995 17.6701 1.08995C19.3263 0.840793 20.9959 0.690527 22.6701 0.639954L23.5901 5.84995L64.59 4.65995L63.0001 10.5H22.4201C22.4201 10.5 28.9401 59.5 28.2201 73.03C27.7001 82.62 25.8201 87.89 24.7801 90.13H6.37006C6.37006 90.13 0.310057 83.9 5.65748e-05 75.22Z" fill="#974333"/>
</g>
<g opacity="0.54">
<path d="M71.7802 75.07C71.1802 85.58 65.3802 90.12 65.3802 90.12H6.3802C3.21531 86.5998 1.09276 82.2681 0.250196 77.61C0.120196 74.89 5.9302 85.61 6.3702 85.31C6.8102 85.01 18.8002 60.78 19.3702 56.69C19.9402 52.6 20.8402 1.19 21.5902 1.19C22.3402 1.19 22.4702 10.03 22.4702 10.03C28.0706 9.7419 33.6441 9.06359 39.1502 8C49.0002 6.09 64.6402 4.68 64.6402 4.68L63.0002 10.52H22.4202C22.4202 10.52 26.5002 45.18 27.5302 56.31C28.1494 62.9579 28.2964 69.6413 27.9702 76.31C27.9702 76.31 30.9702 77.37 38.7802 76.31C46.5902 75.25 71.5802 69.49 71.7802 73.13C71.8102 73.91 71.8102 74.55 71.7802 75.07Z" fill="#974333"/>
</g>
<path opacity="0.54" d="M5.65748e-05 75.22C-0.289943 66.54 17.6701 1.08995 17.6701 1.08995C19.3263 0.840793 20.9959 0.690527 22.6701 0.639954L23.5901 5.84995L64.59 4.65995L63.0001 10.5H22.4201C22.4201 10.5 28.9401 59.5 28.2201 73.03C27.7001 82.62 25.8201 87.89 24.7801 90.13H6.37006C6.37006 90.13 0.310057 83.9 5.65748e-05 75.22Z" fill="url(#paint1_linear_255_16828)"/>
<g opacity="0.54">
<path d="M26.05 42C25.52 35.79 25.23 58.42 25.23 61.21C25.23 64 27.09 83.9 27.57 79.84C28.3287 73.5882 28.4426 67.275 27.91 61C27.19 52.31 26.05 42 26.05 42Z" fill="#E1C5DA"/>
</g>
<g opacity="0.54">
<path d="M22.0002 2.74C22.1802 4.47 22.0002 30.56 21.1802 36.69C20.3602 42.82 20.4202 53.75 20.0002 56.87C19.5802 59.99 19.5802 71.58 19.7002 74C19.8202 76.42 25.0002 90.14 24.2702 89.64C23.5402 89.14 18.0802 76.43 16.9102 76.09C15.7402 75.75 5.33016 88.59 6.09016 86.8C6.85016 85.01 14.8502 73.7 16.5802 68.8C18.1542 64.5148 19.1268 60.0322 19.4702 55.48C19.6402 51.93 20.3102 19.58 20.6502 13.48C20.9902 7.38 21.5902 -1.77 22.0002 2.74Z" fill="#974333"/>
</g>
<path opacity="0.54" d="M19.1 57.65C19.24 58.83 18.03 74.81 16.31 76.36C14.59 77.91 5.40001 88 4.92001 87.86C4.44001 87.72 -0.829988 80.2 0.250012 73.18C1.33001 66.16 18.9 56 19.1 57.65Z" fill="url(#paint2_linear_255_16828)"/>
<g opacity="0.29">
<path d="M15.9101 7.57995C16.8401 3.99995 14.8501 25.09 14.0001 28.66C13.1501 32.23 0.150146 71 2.17015 62.15C4.19015 53.3 5.49015 48.14 15.9101 7.57995Z" fill="#F7E0EC"/>
</g>
<path opacity="0.54" d="M71.7902 73.18C73.1002 74.55 68.3502 80.91 59.2902 83.89C50.2302 86.87 27.7202 77.9 36.0002 76.66C44.2802 75.42 68.6602 69.91 71.7902 73.18Z" fill="url(#paint3_linear_255_16828)"/>
<g opacity="0.78">
<path d="M43.6302 40.74C47.7702 39.74 48.1702 28.41 42.6302 30.3C37.4302 32.06 36.2202 42.62 43.6302 40.74Z" fill="#8B3B1A"/>
<path d="M53.2702 40.64C47.6602 41.04 46.2702 30.96 49.7202 30.57C53.1702 30.18 60.7702 40.1 53.2702 40.64Z" fill="#8B3B1A"/>
<path d="M45.5301 42.67C41.5301 43.51 30.7301 58.93 47.1901 58.51C67.7701 58 51.6201 41.38 45.5301 42.67Z" fill="#8B3B1A"/>
<path d="M35.6601 48.22C39.7501 47.93 40.0301 40.64 36.1501 40.31C32.4401 40 29.1801 48.67 35.6601 48.22Z" fill="#8B3B1A"/>
<path d="M57.5902 47.79C64.0202 52.09 65.5902 44.61 60.1202 41.96C55.0002 39.43 54.0602 45.44 57.5902 47.79Z" fill="#8B3B1A"/>
</g>
<g opacity="0.51">
<path d="M59.1401 61.58H37.3501L38.7001 64.05L59.3301 63.27L59.1401 61.58Z" fill="#8B3B1A"/>
</g>
<g opacity="0.51">
<path d="M58.7201 65.49H39.0801L39.8401 66.93H58.8401L58.7201 65.49Z" fill="#8B3B1A"/>
</g>
<g opacity="0.51">
<path d="M58.32 20.32H32L32.5 18.32L58 17.88L58.32 20.32Z" fill="#8B3B1A"/>
</g>
</g>
<defs>
<linearGradient id="paint0_linear_255_16828" x1="71.0401" y1="16.11" x2="6.28008" y2="80.87" gradientUnits="userSpaceOnUse">
<stop stop-color="#F4BBDD"/>
<stop offset="0.53" stop-color="#F4BBDD"/>
<stop offset="1" stop-color="#FAE0F1"/>
</linearGradient>
<linearGradient id="paint1_linear_255_16828" x1="32.3201" y1="90.13" x2="32.3201" y2="0.629951" gradientUnits="userSpaceOnUse">
<stop stop-color="#5F92CC"/>
<stop offset="0.16" stop-color="#F8F2F9"/>
<stop offset="0.45" stop-color="#F7CEE7"/>
<stop offset="0.85" stop-color="#F9E6F1"/>
<stop offset="1" stop-color="white"/>
</linearGradient>
<linearGradient id="paint2_linear_255_16828" x1="19.11" y1="72.66" x2="0.100012" y2="72.66" gradientUnits="userSpaceOnUse">
<stop stop-color="#5F92CC"/>
<stop offset="0.16" stop-color="#F8F2F9"/>
<stop offset="0.45" stop-color="#F7CEE7"/>
<stop offset="0.85" stop-color="#F9E6F1"/>
<stop offset="1" stop-color="white"/>
</linearGradient>
<linearGradient id="paint3_linear_255_16828" x1="72.0102" y1="78.32" x2="34.2202" y2="78.32" gradientUnits="userSpaceOnUse">
<stop stop-color="#5F92CC"/>
<stop offset="0.16" stop-color="#F8F2F9"/>
<stop offset="0.45" stop-color="#F7CEE7"/>
<stop offset="0.85" stop-color="#F9E6F1"/>
<stop offset="1" stop-color="white"/>
</linearGradient>
<clipPath id="clip0_255_16828">
<rect width="72.01" height="90.13" fill="white"/>
</clipPath>
</defs>
</svg>
