<svg width="72" height="90" fill="none" xmlns="http://www.w3.org/2000/svg"><g clip-path="url(#clip0_15_10873)"><path d="M64.637 4.646c.22-.668-2.083-3.783-3.196-4.38s-39.388-.148-43.774.816c0 0-17.963 65.369-17.667 74.034C.296 83.782 6.362 90 6.362 90h59.01s5.8-4.534 6.391-15.031c.592-10.498-8.771-64.489-8.771-64.489l1.645-5.834z" fill="url(#paint0_linear_15_10873)"/><path d="M0 75.116C-.296 66.451 17.667 1.082 17.667 1.082a42.669 42.669 0 015.019-.45l.923 5.202 41.028-1.182-1.64 5.834H22.42s6.51 48.943 5.8 62.443c-.527 9.582-2.403 14.837-3.445 17.077H6.368S.302 83.782 0 75.116z" fill="#5056E1" opacity=".54"/><path d="M71.769 74.969C71.177 85.466 65.377 90 65.377 90H6.368a25.404 25.404 0 01-6.12-12.496c-.136-2.719 5.682 8.04 6.12 7.684.438-.354 12.43-24.494 12.95-28.573.521-4.079 1.468-55.433 2.214-55.433.745 0 .888 8.831.888 8.831a121.404 121.404 0 0016.726-2.075C49.03 6.082 64.637 4.67 64.637 4.67l-1.64 5.834H22.42s4.077 34.614 5.107 45.727c.617 6.655.764 13.345.438 20.02 0 0 2.96 1.058 10.808 0s32.8-6.803 33.014-3.174a24.26 24.26 0 01-.018 1.892z" fill="#5056E1" opacity=".54"/><path style="mix-blend-mode:multiply" opacity=".54" d="M0 75.116C-.296 66.451 17.667 1.082 17.667 1.082a42.669 42.669 0 015.019-.45l.923 5.202 41.028-1.182-1.64 5.834H22.42s6.51 48.943 5.8 62.443c-.527 9.582-2.403 14.837-3.445 17.077H6.368S.302 83.782 0 75.116z" fill="url(#paint1_linear_15_10873)"/><path d="M26.042 41.968c-.527-6.2-.817 16.402-.817 19.187 0 2.784 1.858 22.662 2.338 18.607a91.506 91.506 0 00.337-18.808c-.716-8.713-1.858-18.986-1.858-18.986z" fill="#AEB1F3" opacity=".54"/><path d="M22.03 2.737c.17 1.72-.036 27.781-.824 33.899-.787 6.118-.793 17.035-1.236 20.15-.444 3.115-.391 14.695-.279 17.142.113 2.447 5.327 16.09 4.57 15.587-.758-.502-6.185-13.193-7.357-13.53-1.172-.337-11.577 12.478-10.814 10.693.764-1.785 8.754-13.08 10.482-17.922a49.325 49.325 0 002.894-13.306c.172-3.546.84-35.85 1.184-41.914.343-6.065.935-15.31 1.38-10.8z" fill="#5056E1" opacity=".54"/><path style="mix-blend-mode:multiply" opacity=".54" d="M19.093 57.567c.142 1.182-1.065 17.141-2.787 18.684-1.723 1.543-10.914 11.627-11.388 11.485-.473-.142-5.747-7.643-4.675-14.659 1.07-7.016 18.65-17.189 18.85-15.51z" fill="url(#paint2_linear_15_10873)"/><path d="M15.903 7.566c.93-3.612-1.06 17.49-1.9 21.055-.84 3.564-13.855 42.257-11.837 33.444 2.018-8.813 3.32-13.991 13.737-54.499z" fill="#CCCEF9" opacity=".29"/><path style="mix-blend-mode:multiply" opacity=".54" d="M71.787 73.077c1.302 1.371-3.439 7.72-12.506 10.693s-31.57-5.982-23.26-7.212c8.31-1.229 32.635-6.75 35.766-3.481z" fill="url(#paint3_linear_15_10873)"/><path style="mix-blend-mode:screen" opacity=".5" d="M67.65 39.06c1.42 9.593-39.53 17.04-41.786 0-2.255-17.042-3.444-28.58-3.444-28.58h40.578l4.652 28.58z" fill="url(#paint4_linear_15_10873)"/><path style="mix-blend-mode:screen" opacity=".5" d="M60.56.148c1.62.03-16.034 5.083-22.68 5.272l-14.265.414-.923-5.202S41.43-.154 60.559.148z" fill="url(#paint5_linear_15_10873)"/><path style="mix-blend-mode:screen" opacity=".5" d="M69.165 71.924c1.255.16-4.102-1.052-12.24-.72-4.9.2-28.29 5.254-25.284 5.508 3.007.254 14.34-1.259 21.467-2.955a70.291 70.291 0 0116.057-1.833z" fill="url(#paint6_linear_15_10873)"/><g style="mix-blend-mode:multiply" opacity=".78" fill="#1921D7"><path d="M43.626 40.685c4.137-1.034 4.54-12.313-1.012-10.427-5.19 1.756-6.404 12.3 1.012 10.427z"/><path d="M53.267 40.579c-5.616.407-6.995-9.665-3.55-10.049 3.55-.384 11.043 9.51 3.55 10.049zm-7.747 2.033c-3.948.84-14.797 16.237 1.663 15.818 20.579-.503 4.427-17.107-1.663-15.818zm-9.86 5.538c4.083-.283 4.368-7.571.485-7.902-3.705-.32-6.966 8.358-.486 7.903zm21.928-.425c6.428 4.291 7.943-3.174 2.527-5.828-5.143-2.524-6.06 3.475-2.527 5.828z"/></g><path d="M59.133 61.492H37.34l1.355 2.464 20.626-.774-.19-1.69zm-.42 3.907H39.075l.757 1.442h19.04l-.16-1.442zm-.403-45.113H31.996l.503-1.992 25.539-.443.272 2.435z" fill="#1921D7" opacity=".51"/><path d="M55.517 1.874c1.094-.396-22.781 2.973-20.005 3.51 2.775.539 13.5-1.193 20.005-3.51zm7.481 8.606s-2.214 3.446-2.332 5.669c-.118 2.222 7.99 29.158 6.9 22.414-1.088-6.744-4.568-28.083-4.568-28.083z" fill="#FF004E"/></g><defs><linearGradient id="paint0_linear_15_10873" x1="71.035" y1="16.09" x2="6.358" y2="80.851" gradientUnits="userSpaceOnUse"><stop stop-color="#1786F4"/><stop offset=".16" stop-color="#2086F3"/><stop offset=".43" stop-color="#3A86F1"/><stop offset=".78" stop-color="#6387EE"/><stop offset="1" stop-color="#8287EB"/></linearGradient><linearGradient id="paint1_linear_15_10873" x1="32.316" y1="90" x2="32.316" y2=".632" gradientUnits="userSpaceOnUse"><stop stop-color="#6D72E7"/><stop offset=".14" stop-color="#7A7FE9"/><stop offset=".4" stop-color="#9CA0EF"/><stop offset=".75" stop-color="#D3D5F8"/><stop offset="1" stop-color="#fff"/></linearGradient><linearGradient id="paint2_linear_15_10873" x1="19.105" y1="72.563" x2=".101" y2="72.563" gradientUnits="userSpaceOnUse"><stop stop-color="#6D72E7"/><stop offset=".14" stop-color="#7A7FE9"/><stop offset=".4" stop-color="#9CA0EF"/><stop offset=".75" stop-color="#D3D5F8"/><stop offset="1" stop-color="#fff"/></linearGradient><linearGradient id="paint3_linear_15_10873" x1="71.994" y1="78.214" x2="34.21" y2="78.214" gradientUnits="userSpaceOnUse"><stop stop-color="#6D72E7"/><stop offset=".14" stop-color="#7A7FE9"/><stop offset=".4" stop-color="#9CA0EF"/><stop offset=".75" stop-color="#D3D5F8"/><stop offset="1" stop-color="#fff"/></linearGradient><linearGradient id="paint4_linear_15_10873" x1="67.679" y1="29.856" x2="22.42" y2="29.856" gradientUnits="userSpaceOnUse"><stop stop-color="#FF004E"/><stop offset="1"/></linearGradient><linearGradient id="paint5_linear_15_10873" x1="60.666" y1="2.955" x2="22.68" y2="2.955" gradientUnits="userSpaceOnUse"><stop stop-color="#FF004E"/><stop offset="1"/></linearGradient><linearGradient id="paint6_linear_15_10873" x1="69.348" y1="73.94" x2="31.375" y2="73.94" gradientUnits="userSpaceOnUse"><stop stop-color="#FF004E"/><stop offset="1"/></linearGradient><clipPath id="clip0_15_10873"><path fill="#fff" d="M0 0h72v90H0z"/></clipPath></defs></svg>