<svg width="72" height="91" fill="none" xmlns="http://www.w3.org/2000/svg"><path d="M64.637 4.65c.22-.669-2.083-3.788-3.196-4.386-1.113-.598-39.39-.148-43.776.817 0 0-17.963 65.456-17.667 74.133.295 8.677 6.362 14.904 6.362 14.904h59.011s5.8-4.54 6.393-15.051c.592-10.512-8.772-64.575-8.772-64.575l1.645-5.842z" fill="url(#paint0_linear_15_11091)"/><path d="M-.002 75.215C-.298 66.537 17.665 1.08 17.665 1.08a42.616 42.616 0 015.02-.45l.923 5.209 41.03-1.184-1.64 5.842h-40.58s6.51 49.008 5.8 62.527c-.526 9.594-2.402 14.856-3.444 17.1H6.366S.3 83.891-.002 75.214z" fill="#61D7E1" opacity=".54"/><path d="M71.77 75.067c-.592 10.511-6.393 15.051-6.393 15.051H6.367A25.451 25.451 0 01.245 77.606c-.136-2.723 5.682 8.05 6.12 7.694.438-.355 12.43-24.527 12.95-28.611.521-4.084 1.468-55.508 2.214-55.508s.888 8.843.888 8.843a121.27 121.27 0 0016.727-2.077c9.884-1.859 25.492-3.273 25.492-3.273l-1.64 5.841H22.419s4.078 34.661 5.108 45.789c.617 6.663.763 13.362.438 20.047 0 0 2.96 1.06 10.808 0s32.802-6.813 33.015-3.178c.018.727.012 1.367-.018 1.894z" fill="#61D7E1" opacity=".54"/><path style="mix-blend-mode:multiply" opacity=".54" d="M-.002 75.215C-.298 66.537 17.665 1.08 17.665 1.08a42.616 42.616 0 015.02-.45l.923 5.209 41.03-1.184-1.64 5.842h-40.58s6.51 49.008 5.8 62.527c-.526 9.594-2.402 14.856-3.444 17.1H6.366S.3 83.891-.002 75.214z" fill="url(#paint1_linear_15_11091)"/><path d="M26.04 42.022c-.526-6.21-.816 16.424-.816 19.212 0 2.788 1.858 22.693 2.338 18.633.758-6.25.871-12.561.337-18.834-.716-8.725-1.859-19.011-1.859-19.011z" fill="#C1EFF3" opacity=".54"/><path d="M22.028 2.738c.171 1.722-.036 27.819-.823 33.945-.787 6.126-.793 17.058-1.237 20.177-.444 3.12-.39 14.714-.278 17.165.112 2.45 5.327 16.111 4.569 15.608-.758-.503-6.185-13.211-7.357-13.548-1.172-.338-11.577 12.494-10.814 10.707.764-1.788 8.754-13.099 10.482-17.946a49.44 49.44 0 002.895-13.324c.171-3.55.84-35.897 1.183-41.97.344-6.073.936-15.33 1.38-10.814z" fill="#61D7E1" opacity=".54"/><path style="mix-blend-mode:multiply" opacity=".54" d="M19.092 57.641c.142 1.184-1.066 17.165-2.788 18.71-1.722 1.545-10.914 11.642-11.388 11.5C4.443 87.71-.83 80.198.24 73.173 1.311 66.147 18.89 55.96 19.092 57.64z" fill="url(#paint2_linear_15_11091)"/><path d="M15.901 7.574c.93-3.617-1.06 17.514-1.9 21.083C13.161 32.226.145 70.97 2.164 62.146 4.182 53.32 5.484 48.136 15.9 7.574z" fill="#DFF7F9" opacity=".29"/><path style="mix-blend-mode:multiply" opacity=".54" d="M71.787 73.172c1.303 1.374-3.438 7.73-12.506 10.708-9.068 2.977-31.571-5.99-23.261-7.221 8.31-1.232 32.636-6.76 35.767-3.487z" fill="url(#paint3_linear_15_11091)"/><path style="mix-blend-mode:screen" opacity=".5" d="M67.65 39.11c1.42 9.606-39.532 17.063-41.787 0-2.255-17.065-3.445-28.618-3.445-28.618h40.58l4.652 28.617z" fill="url(#paint4_linear_15_11091)"/><path style="mix-blend-mode:screen" opacity=".5" d="M60.56.146c1.621.03-16.035 5.09-22.682 5.28l-14.264.414L22.69.63S41.43-.155 60.56.147z" fill="url(#paint5_linear_15_11091)"/><path style="mix-blend-mode:screen" opacity=".5" d="M69.165 72.018c1.255.16-4.101-1.053-12.24-.722-4.9.201-28.292 5.262-25.285 5.516 3.007.255 14.341-1.26 21.468-2.959a70.199 70.199 0 0116.057-1.835z" fill="url(#paint6_linear_15_11091)"/><g style="mix-blend-mode:multiply" opacity=".78" fill="#2AC8D7"><path d="M43.625 40.737c4.138-1.036 4.54-12.329-1.012-10.44-5.19 1.757-6.404 12.316 1.012 10.44z"/><path d="M53.267 40.63c-5.617.409-6.996-9.677-3.551-10.062 3.551-.384 11.045 9.524 3.551 10.062zm-7.747 2.037c-3.949.84-14.798 16.259 1.663 15.838 20.58-.503 4.427-17.129-1.664-15.838zm-9.861 5.546c4.084-.284 4.368-7.582.485-7.914-3.705-.32-6.966 8.37-.485 7.914zm21.929-.427c6.428 4.297 7.943-3.178 2.527-5.836-5.143-2.527-6.06 3.48-2.527 5.836z"/></g><path d="M59.133 61.572H37.34l1.355 2.468 20.627-.776-.19-1.693zm-.421 3.912H39.075l.757 1.444h19.041l-.16-1.444zm-.402-45.173H31.995l.503-1.994 25.54-.444.272 2.438z" fill="#2AC8D7" opacity=".51"/><path d="M55.516 1.874c1.095-.397-22.781 2.977-20.005 3.516 2.776.538 13.5-1.196 20.005-3.516zm7.482 8.618s-2.214 3.45-2.332 5.676c-.118 2.225 7.99 29.198 6.901 22.444-1.089-6.753-4.57-28.12-4.57-28.12z" fill="#B600FF"/><defs><linearGradient id="paint0_linear_15_11091" x1="71.036" y1="16.109" x2="6.277" y2="80.873" gradientUnits="userSpaceOnUse"><stop stop-color="#2AF487"/><stop offset=".16" stop-color="#33F390"/><stop offset=".44" stop-color="#4DEFA8"/><stop offset=".78" stop-color="#76E8CF"/><stop offset="1" stop-color="#94E4EB"/></linearGradient><linearGradient id="paint1_linear_15_11091" x1="32.315" y1="90.118" x2="32.315" y2=".631" gradientUnits="userSpaceOnUse"><stop stop-color="#7FDEE7"/><stop offset=".16" stop-color="#8CE1E9"/><stop offset=".45" stop-color="#AEEAF0"/><stop offset=".83" stop-color="#E5F8FA"/><stop offset="1" stop-color="#fff"/></linearGradient><linearGradient id="paint2_linear_15_11091" x1="19.104" y1="72.657" x2=".098" y2="72.657" gradientUnits="userSpaceOnUse"><stop stop-color="#7FDEE7"/><stop offset=".16" stop-color="#8CE1E9"/><stop offset=".45" stop-color="#AEEAF0"/><stop offset=".83" stop-color="#E5F8FA"/><stop offset="1" stop-color="#fff"/></linearGradient><linearGradient id="paint3_linear_15_11091" x1="72.001" y1="78.316" x2="34.209" y2="78.316" gradientUnits="userSpaceOnUse"><stop stop-color="#7FDEE7"/><stop offset=".16" stop-color="#8CE1E9"/><stop offset=".45" stop-color="#AEEAF0"/><stop offset=".83" stop-color="#E5F8FA"/><stop offset="1" stop-color="#fff"/></linearGradient><linearGradient id="paint4_linear_15_11091" x1="67.686" y1="29.894" x2="22.418" y2="29.894" gradientUnits="userSpaceOnUse"><stop stop-color="#B600FF"/><stop offset="1"/></linearGradient><linearGradient id="paint5_linear_15_11091" x1="60.666" y1="2.957" x2="22.684" y2="2.957" gradientUnits="userSpaceOnUse"><stop stop-color="#B600FF"/><stop offset="1"/></linearGradient><linearGradient id="paint6_linear_15_11091" x1="69.349" y1="74.037" x2="31.373" y2="74.037" gradientUnits="userSpaceOnUse"><stop stop-color="#B600FF"/><stop offset="1"/></linearGradient></defs></svg>