<svg width="7" height="16" fill="none" xmlns="http://www.w3.org/2000/svg"><g filter="url(#filter0_i_0_413)"><path d="M3.106 3.34L2.59 1.782a1.005 1.005 0 01-.023-.55C2.855.027 4.635.386 4.54 1.62c-.026.333.115.66.376.87l.888.711a3.169 3.169 0 01.71 4.147l-3.838 6.17a1.17 1.17 0 00-.177.62c0 1.347-1.9 1.63-2.294.342l-.063-.209a1.2 1.2 0 01.081-.903l2.474-4.802c.833-1.617.98-3.5.408-5.227z" fill="#642F29"/></g><defs><filter id="filter0_i_0_413" x=".09" y=".491" width="6.902" height="14.821" filterUnits="userSpaceOnUse" color-interpolation-filters="sRGB"><feFlood flood-opacity="0" result="BackgroundImageFix"/><feBlend in="SourceGraphic" in2="BackgroundImageFix" result="shape"/><feColorMatrix in="SourceAlpha" values="0 0 0 0 0 0 0 0 0 0 0 0 0 0 0 0 0 0 127 0" result="hardAlpha"/><feOffset dy="2"/><feComposite in2="hardAlpha" operator="arithmetic" k2="-1" k3="1"/><feColorMatrix values="0 0 0 0 0.282288 0 0 0 0 0.106351 0 0 0 0 0.0864333 0 0 0 1 0"/><feBlend in2="shape" result="effect1_innerShadow_0_413"/></filter></defs></svg>