<svg width="30" height="30" fill="none" xmlns="http://www.w3.org/2000/svg"><path style="mix-blend-mode:multiply" d="M25.016 1.278c-2.758-.515-5.126.792-6.869 2.348a42.687 42.687 0 00-3.106 3.04 42.87 42.87 0 00-3.108-3.04C10.188 2.07 7.81.756 5.063 1.278c-4.73.897-7.136 6.936-2.448 13.262 4.26 5.748 12.422 15.253 12.422 15.253 1.218-1.414 8.174-9.505 12.435-15.253 4.68-6.326 2.277-12.365-2.456-13.262z" fill="url(#paint0_linear_0_476)"/><path d="M25.016.389c-2.758-.516-5.126.791-6.869 2.347a42.69 42.69 0 00-3.106 3.04 42.872 42.872 0 00-3.108-3.04C10.188 1.18 7.81-.134 5.063.389c-4.73.896-7.136 6.935-2.448 13.26 4.26 5.747 12.422 15.254 12.422 15.254 1.218-1.413 8.174-9.507 12.435-15.254 4.68-6.325 2.277-12.364-2.456-13.26z" fill="url(#paint1_linear_0_476)"/><path style="mix-blend-mode:multiply" d="M25.442.463c.924.783 1.82 2.378 1.82 4.327 0 2.026-.376 4.073-1.416 5.595-.45.774-.94 1.525-1.467 2.25-3.21 4.334-8.454 10.43-9.378 11.505v4.717c1.23-1.429 8.176-9.508 12.43-15.249C31.966 7.496 29.87 1.649 25.441.463z" fill="url(#paint2_linear_0_476)"/><path d="M2.533 13.69c4.255 5.741 11.201 13.82 12.43 15.25v-4.72c-.923-1.073-6.168-7.169-9.379-11.505a11.4 11.4 0 01-.943-1.5c-1.04-1.522-2.387-4.483-2.387-6.509 0-1.949.732-3.38 2.269-4.162C.098 1.725-2 7.572 2.533 13.69z" fill="#FF4D4D" opacity=".4"/><path style="mix-blend-mode:screen" d="M25.6 1.774c-1.482-1.077-3.474-.488-5.553.795-2.08 1.283-5.023 4.072-5.023 4.072S12.08 3.854 10 2.569C7.92 1.285 5.929.697 4.446 1.774 2.58 3.127 3.03 6 3.03 6s.602-2.876 3.006-2.943c2.405-.067 8.985 6.182 8.985 6.182s6.572-6.24 8.984-6.182C26.42 3.115 27.015 6 27.015 6s.451-2.873-1.415-4.226z" fill="url(#paint3_linear_0_476)"/><path style="mix-blend-mode:multiply" opacity=".4" d="M25.016.35c-2.758-.514-5.126.79-6.869 2.347a42.689 42.689 0 00-3.106 3.04 42.872 42.872 0 00-3.108-3.04C10.188 1.14 7.81-.171 5.063.35c-4.73.895-7.136 6.934-2.448 13.26 4.255 5.75 12.416 15.247 12.416 15.247 1.217-1.414 8.173-9.505 12.434-15.253C32.153 7.285 29.749 1.246 25.016.351z" fill="url(#paint4_linear_0_476)"/><defs><linearGradient id="paint0_linear_0_476" x1="15.037" y1="27.512" x2="15.037" y2="11.723" gradientUnits="userSpaceOnUse"><stop stop-color="#0F3DA7"/><stop offset="1" stop-color="#3358B3"/></linearGradient><linearGradient id="paint1_linear_0_476" x1="14.639" y1="5.01" x2="18.223" y2="22.005" gradientUnits="userSpaceOnUse"><stop stop-color="#FF6C6C"/><stop offset="1" stop-color="#FF4D4D"/></linearGradient><linearGradient id="paint2_linear_0_476" x1="26.809" y1="-4.995" x2="20.172" y2="27.136" gradientUnits="userSpaceOnUse"><stop stop-color="#FF4D4D"/><stop offset=".35" stop-color="#FF4D4D"/><stop offset=".77" stop-color="#E53030"/><stop offset="1" stop-color="#8D3030"/></linearGradient><linearGradient id="paint3_linear_0_476" x1="16.184" y1="-.434" x2="14.222" y2="9.065" gradientUnits="userSpaceOnUse"><stop stop-color="#FF4D4D"/><stop offset=".6" stop-color="#FF4D4D"/><stop offset="1" stop-color="#FF664A"/></linearGradient><linearGradient id="paint4_linear_0_476" x1="14.211" y1="4.759" x2="22.621" y2="27.108" gradientUnits="userSpaceOnUse"><stop stop-color="#FF6C6C"/><stop offset="1" stop-color="#FF4D4D"/></linearGradient></defs></svg>