<svg width="61" height="61" fill="none" xmlns="http://www.w3.org/2000/svg"><g filter="url(#filter0_i_5_1846)"><path d="M48.225 8.226a4.549 4.549 0 01-4.184-2.765l-.092-.217a4.313 4.313 0 00-5.659-2.276 4.313 4.313 0 01-4.74-.918 4.313 4.313 0 00-6.1 0l-.166.166A4.549 4.549 0 0122.37 3.22l-.219-.088a4.313 4.313 0 00-5.61 2.391 4.313 4.313 0 01-4.002 2.703 4.313 4.313 0 00-4.313 4.313v.236a4.549 4.549 0 01-2.765 4.184l-.217.092a4.313 4.313 0 00-2.276 5.659 4.313 4.313 0 01-.918 4.74 4.313 4.313 0 000 6.1l.166.166A4.549 4.549 0 013.22 38.63l-.088.219a4.313 4.313 0 002.391 5.61 4.313 4.313 0 012.703 4.002 4.313 4.313 0 004.313 4.313h.236a4.548 4.548 0 014.184 2.765l.092.217a4.313 4.313 0 005.659 2.276 4.313 4.313 0 014.74.918 4.313 4.313 0 006.1 0l.166-.166a4.549 4.549 0 014.914-1.004l.219.088a4.313 4.313 0 005.61-2.391 4.313 4.313 0 014.002-2.703 4.313 4.313 0 004.313-4.313v-.236a4.548 4.548 0 012.765-4.184l.217-.092a4.313 4.313 0 002.276-5.659 4.313 4.313 0 01.918-4.74 4.313 4.313 0 000-6.1l-.166-.166a4.549 4.549 0 01-1.004-4.914l.088-.219a4.313 4.313 0 00-2.391-5.61 4.313 4.313 0 01-2.703-4.002 4.313 4.313 0 00-4.313-4.313h-.236z" fill="url(#paint0_linear_5_1846)"/></g><defs><linearGradient id="paint0_linear_5_1846" x1="62" y1="30.502" x2="-1" y2="30.502" gradientUnits="userSpaceOnUse"><stop stop-color="#00EEF7"/><stop offset="1" stop-color="#008CF7"/></linearGradient><filter id="filter0_i_5_1846" x=".786" y=".786" width="59.427" height="59.427" filterUnits="userSpaceOnUse" color-interpolation-filters="sRGB"><feFlood flood-opacity="0" result="BackgroundImageFix"/><feBlend in="SourceGraphic" in2="BackgroundImageFix" result="shape"/><feColorMatrix in="SourceAlpha" values="0 0 0 0 0 0 0 0 0 0 0 0 0 0 0 0 0 0 127 0" result="hardAlpha"/><feOffset dy="-3"/><feComposite in2="hardAlpha" operator="arithmetic" k2="-1" k3="1"/><feColorMatrix values="0 0 0 0 0.135164 0 0 0 0 0.281695 0 0 0 0 0.609527 0 0 0 0.48 0"/><feBlend in2="shape" result="effect1_innerShadow_5_1846"/></filter></defs></svg>