<svg width="50" height="50" fill="none" xmlns="http://www.w3.org/2000/svg"><g filter="url(#filter0_i_5_1757)"><circle cx="25" cy="25" r="25" fill="#FEF2EA"/></g><g filter="url(#filter1_i_5_1757)"><circle cx="25" cy="25" r="21.808" fill="#FA0874"/></g><g filter="url(#filter2_di_5_1757)"><path d="M15.36 28.394l4.36-4.36-4.197-4.197a.994.994 0 01-.297-.732c0-.288.099-.532.297-.73l2.952-2.953a.994.994 0 01.731-.297c.29 0 .533.099.732.297l4.197 4.198 4.225-4.225a.994.994 0 01.73-.297c.29 0 .533.099.732.297l3.304 3.304a.994.994 0 01.298.731c0 .29-.1.533-.298.732L28.9 24.386l4.144 4.143a.994.994 0 01.297.732.993.993 0 01-.297.73l-2.952 2.953a.994.994 0 01-.731.297.994.994 0 01-.732-.297L24.487 28.8l-4.36 4.36a.994.994 0 01-.731.298.994.994 0 01-.731-.298l-3.304-3.303a.994.994 0 01-.298-.732c0-.289.1-.532.298-.73z" fill="#fff"/></g><defs><filter id="filter0_i_5_1757" x="0" y="0" width="50" height="50" filterUnits="userSpaceOnUse" color-interpolation-filters="sRGB"><feFlood flood-opacity="0" result="BackgroundImageFix"/><feBlend in="SourceGraphic" in2="BackgroundImageFix" result="shape"/><feColorMatrix in="SourceAlpha" values="0 0 0 0 0 0 0 0 0 0 0 0 0 0 0 0 0 0 127 0" result="hardAlpha"/><feOffset dy="-10"/><feComposite in2="hardAlpha" operator="arithmetic" k2="-1" k3="1"/><feColorMatrix values="0 0 0 0 0.956863 0 0 0 0 0.74902 0 0 0 0 0.603922 0 0 0 1 0"/><feBlend in2="shape" result="effect1_innerShadow_5_1757"/></filter><filter id="filter1_i_5_1757" x="3.191" y="3.191" width="43.617" height="43.617" filterUnits="userSpaceOnUse" color-interpolation-filters="sRGB"><feFlood flood-opacity="0" result="BackgroundImageFix"/><feBlend in="SourceGraphic" in2="BackgroundImageFix" result="shape"/><feColorMatrix in="SourceAlpha" values="0 0 0 0 0 0 0 0 0 0 0 0 0 0 0 0 0 0 127 0" result="hardAlpha"/><feOffset dy="-3"/><feComposite in2="hardAlpha" operator="arithmetic" k2="-1" k3="1"/><feColorMatrix values="0 0 0 0 0.77878 0 0 0 0 0.00323897 0 0 0 0 0.349348 0 0 0 1 0"/><feBlend in2="shape" result="effect1_innerShadow_5_1757"/></filter><filter id="filter2_di_5_1757" x="15.063" y="15.098" width="19.361" height="19.361" filterUnits="userSpaceOnUse" color-interpolation-filters="sRGB"><feFlood flood-opacity="0" result="BackgroundImageFix"/><feColorMatrix in="SourceAlpha" values="0 0 0 0 0 0 0 0 0 0 0 0 0 0 0 0 0 0 127 0" result="hardAlpha"/><feOffset dx="1" dy="1"/><feComposite in2="hardAlpha" operator="out"/><feColorMatrix values="0 0 0 0 0.780392 0 0 0 0 0.00392157 0 0 0 0 0.34902 0 0 0 1 0"/><feBlend in2="BackgroundImageFix" result="effect1_dropShadow_5_1757"/><feBlend in="SourceGraphic" in2="effect1_dropShadow_5_1757" result="shape"/><feColorMatrix in="SourceAlpha" values="0 0 0 0 0 0 0 0 0 0 0 0 0 0 0 0 0 0 127 0" result="hardAlpha"/><feOffset dx="1" dy="1"/><feComposite in2="hardAlpha" operator="arithmetic" k2="-1" k3="1"/><feColorMatrix values="0 0 0 0 0.956863 0 0 0 0 0.74902 0 0 0 0 0.603922 0 0 0 0.22 0"/><feBlend in2="shape" result="effect2_innerShadow_5_1757"/></filter></defs></svg>