<svg width="25" height="25" fill="none" xmlns="http://www.w3.org/2000/svg"><g filter="url(#filter0_i_0_464)"><circle cx="12.5" cy="12.5" r="12.5" fill="#FEF2EA"/></g><g filter="url(#filter1_i_0_464)"><circle cx="12.5" cy="12.5" r="10.904" fill="url(#paint0_linear_0_464)"/></g><g filter="url(#filter2_di_0_464)"><path d="M10.443 16.721v-3.083H7.475a.497.497 0 01-.364-.153.497.497 0 01-.154-.364v-2.087a.5.5 0 01.154-.364.497.497 0 01.364-.153h2.968V7.53c0-.14.05-.262.153-.364a.497.497 0 01.364-.153h2.336c.14 0 .261.05.364.153a.497.497 0 01.153.364v2.987h2.93c.14 0 .261.051.363.153a.497.497 0 01.154.364v2.087c0 .14-.051.262-.154.364a.497.497 0 01-.363.153h-2.93v3.083c0 .14-.051.262-.153.364a.497.497 0 01-.364.153H10.96a.497.497 0 01-.364-.153.497.497 0 01-.153-.364z" fill="#fff"/></g><defs><filter id="filter0_i_0_464" x="0" y="0" width="25" height="25" filterUnits="userSpaceOnUse" color-interpolation-filters="sRGB"><feFlood flood-opacity="0" result="BackgroundImageFix"/><feBlend in="SourceGraphic" in2="BackgroundImageFix" result="shape"/><feColorMatrix in="SourceAlpha" values="0 0 0 0 0 0 0 0 0 0 0 0 0 0 0 0 0 0 127 0" result="hardAlpha"/><feOffset dy="-10"/><feComposite in2="hardAlpha" operator="arithmetic" k2="-1" k3="1"/><feColorMatrix values="0 0 0 0 0.956863 0 0 0 0 0.74902 0 0 0 0 0.603922 0 0 0 1 0"/><feBlend in2="shape" result="effect1_innerShadow_0_464"/></filter><filter id="filter1_i_0_464" x="1.596" y="1.596" width="21.808" height="21.808" filterUnits="userSpaceOnUse" color-interpolation-filters="sRGB"><feFlood flood-opacity="0" result="BackgroundImageFix"/><feBlend in="SourceGraphic" in2="BackgroundImageFix" result="shape"/><feColorMatrix in="SourceAlpha" values="0 0 0 0 0 0 0 0 0 0 0 0 0 0 0 0 0 0 127 0" result="hardAlpha"/><feOffset dy="-3"/><feComposite in2="hardAlpha" operator="arithmetic" k2="-1" k3="1"/><feColorMatrix values="0 0 0 0 0.976471 0 0 0 0 0.360784 0 0 0 0 0.0313726 0 0 0 1 0"/><feBlend in2="shape" result="effect1_innerShadow_0_464"/></filter><filter id="filter2_di_0_464" x="6.957" y="7.013" width="11.302" height="11.226" filterUnits="userSpaceOnUse" color-interpolation-filters="sRGB"><feFlood flood-opacity="0" result="BackgroundImageFix"/><feColorMatrix in="SourceAlpha" values="0 0 0 0 0 0 0 0 0 0 0 0 0 0 0 0 0 0 127 0" result="hardAlpha"/><feOffset dx="1" dy="1"/><feComposite in2="hardAlpha" operator="out"/><feColorMatrix values="0 0 0 0 0.976471 0 0 0 0 0.360784 0 0 0 0 0.0313726 0 0 0 1 0"/><feBlend in2="BackgroundImageFix" result="effect1_dropShadow_0_464"/><feBlend in="SourceGraphic" in2="effect1_dropShadow_0_464" result="shape"/><feColorMatrix in="SourceAlpha" values="0 0 0 0 0 0 0 0 0 0 0 0 0 0 0 0 0 0 127 0" result="hardAlpha"/><feOffset dx="1" dy="1"/><feComposite in2="hardAlpha" operator="arithmetic" k2="-1" k3="1"/><feColorMatrix values="0 0 0 0 0.956863 0 0 0 0 0.74902 0 0 0 0 0.603922 0 0 0 0.22 0"/><feBlend in2="shape" result="effect2_innerShadow_0_464"/></filter><linearGradient id="paint0_linear_0_464" x1="1.596" y1="2.375" x2="21.807" y2="23.404" gradientUnits="userSpaceOnUse"><stop stop-color="#FEB830"/><stop offset="1" stop-color="#FB8D40"/></linearGradient></defs></svg>