<svg width="28" height="28" viewBox="0 0 28 28" fill="none" xmlns="http://www.w3.org/2000/svg">
<g clip-path="url(#clip0_42_17915)">
<path d="M14 28C21.732 28 28 21.732 28 14C28 6.268 21.732 0 14 0C6.268 0 0 6.268 0 14C0 21.732 6.268 28 14 28Z" fill="#0098EA"/>
<path d="M18.7801 7.81396H9.21929C7.46139 7.81396 6.34719 9.71021 7.23159 11.2432L13.1322 21.4706C13.5172 22.1384 14.4822 22.1384 14.8672 21.4706L20.769 11.2432C21.6522 9.71266 20.538 7.81396 18.7813 7.81396H18.7801ZM13.1274 18.4035L11.8423 15.9165L8.74164 10.3708C8.53709 10.0159 8.78974 9.56101 9.21809 9.56101H13.1262V18.4047L13.1274 18.4035ZM19.2554 10.3696L16.1559 15.9177L14.8708 18.4035V9.55981H18.7789C19.2073 9.55981 19.4599 10.0147 19.2554 10.3696Z" fill="white"/>
</g>
<defs>
<clipPath id="clip0_42_17915">
<rect width="28" height="28" fill="white"/>
</clipPath>
</defs>
</svg>
